<?xml version="1.0"?>
<svg xmlns="http://www.w3.org/2000/svg" xmlns:xlink="http://www.w3.org/1999/xlink" version="1.1" id="Layer_1" x="0px" y="0px" viewBox="0 0 512.001 512.001" style="enable-background:new 0 0 512.001 512.001;" xml:space="preserve" width="512px" height="512px" class=""><g><path style="fill:#BEDDE5" d="M465.449,359.761c-23.276,0-23.276,22.539-46.551,22.539c-23.273,0-23.273-22.539-46.545-22.539  c-23.273,0-23.273,22.539-46.547,22.539c-23.272,0-23.272-22.539-46.545-22.539c-23.272,0-23.272,22.539-46.544,22.539  c-23.269,0-23.269-22.539-46.538-22.539c-23.272,0-23.272,22.539-46.544,22.539s-23.272-22.539-46.545-22.539  c-23.272,0-23.272,22.539-46.544,22.539c-23.271,0-23.271-22.539-46.542-22.539v32.614v22.188v33.233h512v-10.694v-44.727v-10.075  C488.724,382.299,488.724,359.761,465.449,359.761z" data-original="#77C69E" class="" data-old_color="#77C69E"/><path style="fill:#E6E6E6;" d="M185.98,332.829V168.301c0-23.572-19.109-42.681-42.681-42.681l0,0  c-23.572,0-42.681,19.109-42.681,42.681v164.527c-24.997,14.67-41.792,41.81-41.792,72.89c0,46.653,37.82,56.018,84.474,56.018  s84.475-9.364,84.475-56.018C227.772,374.639,210.978,347.498,185.98,332.829z" data-original="#E6E6E6" class=""/><path style="fill:#E66032" d="M143.298,461.736c-30.889,0-56.018-25.129-56.018-56.018c0-19.78,10.629-38.306,27.74-48.348  l14.054-8.247V168.301c0-7.844,6.381-14.226,14.226-14.226s14.226,6.381,14.226,14.226v180.823l14.054,8.247  c17.111,10.041,27.74,28.567,27.74,48.348C199.318,436.606,174.187,461.736,143.298,461.736z" data-original="#F24141" class="" data-old_color="#F24141"/><path style="fill:#92C7D3" d="M512.001,491.903c-23.276,0-23.276-22.539-46.553-22.539s-23.276,22.539-46.553,22.539  c-23.273,0-23.273-22.539-46.545-22.539c-23.273,0-23.273,22.539-46.547,22.539c-23.272,0-23.272-22.539-46.545-22.539  c-23.272,0-23.272,22.539-46.544,22.539c-23.27,0-23.27-22.539-46.538-22.539c-23.272,0-23.272,22.539-46.544,22.539  s-23.272-22.539-46.545-22.539c-23.272,0-23.272,22.539-46.544,22.539c-23.271,0-23.271-22.539-46.542-22.539v-54.801  c23.271,0,23.271,22.539,46.542,22.539c23.272,0,23.272-22.539,46.544-22.539s23.272,22.539,46.545,22.539  c23.272,0,23.272-22.539,46.544-22.539c23.27,0,23.27,22.539,46.538,22.539c23.272,0,23.272-22.539,46.544-22.539  s23.272,22.539,46.545,22.539s23.273-22.539,46.547-22.539c23.273,0,23.273,22.539,46.545,22.539  c23.276,0,23.276-22.539,46.553-22.539s23.276,22.539,46.553,22.539" data-original="#89E5B9" class="" data-old_color="#89E5B9"/><g>
	<path style="fill:#E66032" d="M257.04,190.233h-37.346c-4.912,0-8.892-3.981-8.892-8.892c0-4.911,3.98-8.892,8.892-8.892h37.346   c4.912,0,8.892,3.981,8.892,8.892C265.933,186.252,261.951,190.233,257.04,190.233z" data-original="#F24141" class="" data-old_color="#F24141"/>
	<path style="fill:#E66032" d="M257.04,293.38h-37.346c-4.912,0-8.892-3.981-8.892-8.892s3.98-8.892,8.892-8.892h37.346   c4.912,0,8.892,3.981,8.892,8.892S261.951,293.38,257.04,293.38z" data-original="#F24141" class="" data-old_color="#F24141"/>
	<path style="fill:#E66032" d="M257.04,241.807h-37.346c-4.912,0-8.892-3.981-8.892-8.892c0-4.911,3.98-8.892,8.892-8.892h37.346   c4.912,0,8.892,3.981,8.892,8.892C265.933,237.826,261.951,241.807,257.04,241.807z" data-original="#F24141" class="" data-old_color="#F24141"/>
</g><path style="fill:#FCB641" d="M336.478,77.007h-27.852c-0.758-3.393-2.094-6.566-3.901-9.413l19.696-19.696  c2.547-2.547,2.547-6.675,0-9.222c-2.544-2.547-6.676-2.547-9.221,0l-19.696,19.696c-2.847-1.807-6.02-3.143-9.412-3.901V26.619  c0-3.602-2.92-6.521-6.521-6.521c-3.601,0-6.521,2.919-6.521,6.521v27.852c-3.393,0.759-6.565,2.094-9.412,3.901l-19.7-19.696  c-2.544-2.547-6.676-2.547-9.221,0c-2.547,2.547-2.547,6.675,0,9.222l19.696,19.696c-1.807,2.847-3.143,6.02-3.901,9.412h-27.852  c-3.601,0-6.521,2.919-6.521,6.521s2.92,6.521,6.521,6.521h27.852c0.759,3.392,2.094,6.565,3.901,9.412l-19.696,19.696  c-2.547,2.547-2.547,6.675,0,9.222c1.272,1.273,2.942,1.91,4.611,1.91s3.338-0.637,4.611-1.91l19.697-19.697  c2.847,1.807,6.02,3.143,9.412,3.901v27.852c0,3.602,2.92,6.521,6.521,6.521s6.521-2.919,6.521-6.521v-27.849  c3.393-0.759,6.566-2.094,9.412-3.901l19.696,19.696c1.272,1.273,2.942,1.91,4.611,1.91c1.669,0,3.338-0.637,4.611-1.91  c2.547-2.547,2.547-6.675,0-9.222l-19.696-19.696c1.807-2.847,3.143-6.02,3.902-9.413h27.852c3.601,0,6.521-2.919,6.521-6.521  C343.001,79.927,340.079,77.007,336.478,77.007z" data-original="#FFDE55" class="active-path" data-old_color="#FFDE55"/></g> </svg>
